<mxfile modified="2021-11-30T08:12:26.495Z" host="app.diagrams.net" agent="5.0 (Windows NT 10.0; Win64; x64) AppleWebKit/537.36 (KHTML, like Gecko) Chrome/96.0.4664.45 Safari/537.36" etag="M8rvwC3rON-oma2Xeex1" version="15.8.6" type="github">
  <diagram id="Hu7XzEX7q5WXiQQAuz-0" name="Page-1">
    <mxGraphModel dx="1422" dy="754" grid="1" gridSize="10" guides="1" tooltips="1" connect="1" arrows="1" fold="1" page="1" pageScale="1" pageWidth="827" pageHeight="1169" math="0" shadow="0">
      <root>
        <mxCell id="0" />
        <mxCell id="1" parent="0" />
        <mxCell id="uSNuhHNYJuH7G0lH1MeV-10" value="" style="rounded=0;whiteSpace=wrap;html=1;shadow=1;glass=0;comic=0;gradientColor=#97d077;fillColor=#d5e8d4;strokeColor=#82b366;" parent="1" vertex="1">
          <mxGeometry x="70" y="50" width="800" height="120" as="geometry" />
        </mxCell>
        <mxCell id="uSNuhHNYJuH7G0lH1MeV-16" value="&lt;b&gt;&lt;font color=&quot;#ffffff&quot; style=&quot;font-size: 18px&quot;&gt;网关&lt;/font&gt;&lt;/b&gt;" style="rounded=1;whiteSpace=wrap;html=1;shadow=1;glass=0;comic=0;gradientColor=#6666FF;gradientDirection=north;" parent="1" vertex="1">
          <mxGeometry x="70" y="175" width="660" height="41" as="geometry" />
        </mxCell>
        <mxCell id="uSNuhHNYJuH7G0lH1MeV-19" value="&lt;font style=&quot;font-size: 18px&quot; color=&quot;#6666ff&quot;&gt;&lt;b&gt;展&lt;br&gt;示&lt;br&gt;层&lt;/b&gt;&lt;/font&gt;" style="text;html=1;resizable=0;points=[];autosize=1;align=left;verticalAlign=top;spacingTop=-4;" parent="1" vertex="1">
          <mxGeometry x="100" y="80" width="30" height="50" as="geometry" />
        </mxCell>
        <mxCell id="uSNuhHNYJuH7G0lH1MeV-20" value="&lt;b&gt;&lt;font style=&quot;font-size: 15px&quot;&gt;WEB端（HTML）&lt;/font&gt;&lt;/b&gt;" style="rounded=0;whiteSpace=wrap;html=1;shadow=1;glass=0;comic=0;gradientColor=#97d077;fillColor=#d5e8d4;strokeColor=#82b366;gradientDirection=west;" parent="1" vertex="1">
          <mxGeometry x="156" y="50" width="394" height="120" as="geometry" />
        </mxCell>
        <mxCell id="uSNuhHNYJuH7G0lH1MeV-21" value="&lt;b&gt;&lt;font style=&quot;font-size: 15px&quot;&gt;移动端（H5）&lt;/font&gt;&lt;/b&gt;" style="rounded=0;whiteSpace=wrap;html=1;shadow=1;glass=0;comic=0;gradientColor=#97d077;fillColor=#d5e8d4;strokeColor=#82b366;gradientDirection=east;" parent="1" vertex="1">
          <mxGeometry x="548" y="50" width="320" height="120" as="geometry" />
        </mxCell>
        <mxCell id="uSNuhHNYJuH7G0lH1MeV-22" value="" style="rounded=0;whiteSpace=wrap;html=1;shadow=1;glass=0;comic=0;gradientColor=#994C00;gradientDirection=south;" parent="1" vertex="1">
          <mxGeometry x="70" y="220" width="660" height="260" as="geometry" />
        </mxCell>
        <mxCell id="uSNuhHNYJuH7G0lH1MeV-23" value="&lt;font color=&quot;#ffffff&quot;&gt;&lt;b&gt;数据采集服务&lt;/b&gt;&lt;/font&gt;" style="shape=cube;whiteSpace=wrap;html=1;boundedLbl=1;backgroundOutline=1;darkOpacity=0.05;darkOpacity2=0.1;rounded=0;shadow=0;glass=0;comic=0;gradientColor=#6666FF;size=9;fontSize=15;" parent="1" vertex="1">
          <mxGeometry x="156" y="240" width="130" height="70" as="geometry" />
        </mxCell>
        <mxCell id="uSNuhHNYJuH7G0lH1MeV-24" value="&lt;font color=&quot;#ffffff&quot; style=&quot;font-size: 15px&quot;&gt;&lt;b&gt;前置数据&lt;br&gt;处理服务&lt;/b&gt;&lt;/font&gt;" style="shape=cube;whiteSpace=wrap;html=1;boundedLbl=1;backgroundOutline=1;darkOpacity=0.05;darkOpacity2=0.1;rounded=0;shadow=0;glass=0;comic=0;gradientColor=#6666FF;size=9;" parent="1" vertex="1">
          <mxGeometry x="298" y="240" width="130" height="70" as="geometry" />
        </mxCell>
        <mxCell id="uSNuhHNYJuH7G0lH1MeV-25" value="&lt;font color=&quot;#ffffff&quot; style=&quot;font-size: 15px&quot;&gt;&lt;b&gt;数据分析服务&lt;/b&gt;&lt;/font&gt;" style="shape=cube;whiteSpace=wrap;html=1;boundedLbl=1;backgroundOutline=1;darkOpacity=0.05;darkOpacity2=0.1;rounded=0;shadow=0;glass=0;comic=0;gradientColor=#6666FF;size=9;" parent="1" vertex="1">
          <mxGeometry x="440" y="240" width="130" height="70" as="geometry" />
        </mxCell>
        <mxCell id="uSNuhHNYJuH7G0lH1MeV-26" value="&lt;font color=&quot;#ffffff&quot; style=&quot;font-size: 15px&quot;&gt;&lt;b&gt;权限服务&lt;/b&gt;&lt;/font&gt;" style="shape=cube;whiteSpace=wrap;html=1;boundedLbl=1;backgroundOutline=1;darkOpacity=0.05;darkOpacity2=0.1;rounded=0;shadow=0;glass=0;comic=0;gradientColor=#6666FF;size=9;" parent="1" vertex="1">
          <mxGeometry x="585" y="240" width="130" height="70" as="geometry" />
        </mxCell>
        <mxCell id="uSNuhHNYJuH7G0lH1MeV-27" value="&lt;b&gt;&lt;font color=&quot;#ffffff&quot; style=&quot;font-size: 15px&quot;&gt;BI接口服务&lt;/font&gt;&lt;/b&gt;" style="shape=cube;whiteSpace=wrap;html=1;boundedLbl=1;backgroundOutline=1;darkOpacity=0.05;darkOpacity2=0.1;rounded=0;shadow=0;glass=0;comic=0;gradientColor=#6666FF;size=9;" parent="1" vertex="1">
          <mxGeometry x="156" y="315" width="130" height="70" as="geometry" />
        </mxCell>
        <mxCell id="uSNuhHNYJuH7G0lH1MeV-28" value="&lt;b&gt;&lt;font color=&quot;#ffffff&quot; style=&quot;font-size: 15px&quot;&gt;参数处理服务&lt;/font&gt;&lt;/b&gt;" style="shape=cube;whiteSpace=wrap;html=1;boundedLbl=1;backgroundOutline=1;darkOpacity=0.05;darkOpacity2=0.1;rounded=0;shadow=0;glass=0;comic=0;gradientColor=#6666FF;size=9;" parent="1" vertex="1">
          <mxGeometry x="298" y="315" width="130" height="70" as="geometry" />
        </mxCell>
        <mxCell id="uSNuhHNYJuH7G0lH1MeV-29" value="&lt;b&gt;&lt;font style=&quot;font-size: 15px&quot; color=&quot;#ffffff&quot;&gt;消息服务&lt;/font&gt;&lt;/b&gt;" style="shape=cube;whiteSpace=wrap;html=1;boundedLbl=1;backgroundOutline=1;darkOpacity=0.05;darkOpacity2=0.1;rounded=0;shadow=0;glass=0;comic=0;gradientColor=#6666FF;size=9;" parent="1" vertex="1">
          <mxGeometry x="440" y="315" width="130" height="70" as="geometry" />
        </mxCell>
        <mxCell id="uSNuhHNYJuH7G0lH1MeV-30" value="&lt;b&gt;&lt;font style=&quot;font-size: 15px&quot; color=&quot;#ffffff&quot;&gt;设备管理服务&lt;/font&gt;&lt;/b&gt;" style="shape=cube;whiteSpace=wrap;html=1;boundedLbl=1;backgroundOutline=1;darkOpacity=0.05;darkOpacity2=0.1;rounded=0;shadow=0;glass=0;comic=0;gradientColor=#6666FF;size=9;" parent="1" vertex="1">
          <mxGeometry x="156" y="390" width="130" height="70" as="geometry" />
        </mxCell>
        <mxCell id="uSNuhHNYJuH7G0lH1MeV-31" value="&lt;b&gt;&lt;font style=&quot;font-size: 15px&quot; color=&quot;#ffffff&quot;&gt;客户管理服务&lt;/font&gt;&lt;/b&gt;" style="shape=cube;whiteSpace=wrap;html=1;boundedLbl=1;backgroundOutline=1;darkOpacity=0.05;darkOpacity2=0.1;rounded=0;shadow=0;glass=0;comic=0;gradientColor=#6666FF;size=9;" parent="1" vertex="1">
          <mxGeometry x="585" y="315" width="130" height="70" as="geometry" />
        </mxCell>
        <mxCell id="uSNuhHNYJuH7G0lH1MeV-33" value="&lt;font color=&quot;#6666ff&quot;&gt;&lt;span style=&quot;font-size: 18px&quot;&gt;&lt;b&gt;服&lt;br&gt;务&lt;br&gt;层&lt;/b&gt;&lt;/span&gt;&lt;/font&gt;" style="text;html=1;resizable=0;points=[];autosize=1;align=left;verticalAlign=top;spacingTop=-4;" parent="1" vertex="1">
          <mxGeometry x="100" y="300" width="30" height="50" as="geometry" />
        </mxCell>
        <mxCell id="uSNuhHNYJuH7G0lH1MeV-72" value="" style="group" parent="1" vertex="1" connectable="0">
          <mxGeometry x="70" y="486" width="660" height="120" as="geometry" />
        </mxCell>
        <mxCell id="uSNuhHNYJuH7G0lH1MeV-14" value="" style="rounded=0;whiteSpace=wrap;html=1;shadow=1;glass=0;comic=0;gradientColor=#3399FF;gradientDirection=south;" parent="uSNuhHNYJuH7G0lH1MeV-72" vertex="1">
          <mxGeometry width="660" height="120" as="geometry" />
        </mxCell>
        <mxCell id="uSNuhHNYJuH7G0lH1MeV-34" value="&lt;font style=&quot;font-size: 15px&quot;&gt;&lt;b&gt;EMQTT消息服务&lt;/b&gt;&lt;/font&gt;" style="shape=dataStorage;whiteSpace=wrap;html=1;rounded=1;shadow=0;glass=0;comic=0;gradientColor=#6666FF;" parent="uSNuhHNYJuH7G0lH1MeV-72" vertex="1">
          <mxGeometry x="86" y="20" width="220" height="80" as="geometry" />
        </mxCell>
        <mxCell id="uSNuhHNYJuH7G0lH1MeV-35" value="&lt;b&gt;&lt;font style=&quot;font-size: 15px&quot;&gt;kafka消息中心&lt;/font&gt;&lt;/b&gt;" style="shape=dataStorage;whiteSpace=wrap;html=1;rounded=1;shadow=0;glass=0;comic=0;gradientColor=#6666FF;direction=west;" parent="uSNuhHNYJuH7G0lH1MeV-72" vertex="1">
          <mxGeometry x="370" y="20" width="240" height="80" as="geometry" />
        </mxCell>
        <mxCell id="uSNuhHNYJuH7G0lH1MeV-37" value="&lt;font color=&quot;#6666ff&quot;&gt;&lt;span style=&quot;font-size: 18px&quot;&gt;&lt;b&gt;中&lt;br&gt;间&lt;br&gt;件&lt;/b&gt;&lt;/span&gt;&lt;/font&gt;" style="text;html=1;resizable=0;points=[];autosize=1;align=left;verticalAlign=top;spacingTop=-4;" parent="uSNuhHNYJuH7G0lH1MeV-72" vertex="1">
          <mxGeometry x="30" y="35" width="30" height="50" as="geometry" />
        </mxCell>
        <mxCell id="uSNuhHNYJuH7G0lH1MeV-73" value="" style="group" parent="1" vertex="1" connectable="0">
          <mxGeometry x="71" y="612" width="815" height="150" as="geometry" />
        </mxCell>
        <mxCell id="uSNuhHNYJuH7G0lH1MeV-69" value="" style="html=1;shadow=0;dashed=0;align=center;verticalAlign=middle;shape=mxgraph.arrows2.arrow;dy=0;dx=10;notch=10;rounded=1;glass=0;comic=0;fillColor=#3399FF;gradientColor=#6666FF;" parent="uSNuhHNYJuH7G0lH1MeV-73" vertex="1">
          <mxGeometry x="130.78751857355127" y="94" width="121.09955423476968" height="30" as="geometry" />
        </mxCell>
        <mxCell id="uSNuhHNYJuH7G0lH1MeV-38" value="" style="rounded=0;whiteSpace=wrap;html=1;shadow=1;glass=0;comic=0;gradientColor=#3399FF;gradientDirection=south;" parent="uSNuhHNYJuH7G0lH1MeV-73" vertex="1">
          <mxGeometry y="1" width="620" height="140" as="geometry" />
        </mxCell>
        <mxCell id="uSNuhHNYJuH7G0lH1MeV-45" value="" style="verticalLabelPosition=middle;verticalAlign=middle;html=1;shape=mxgraph.infographic.cylinder;fillColor=#F2931E;strokeColor=none;shadow=0;align=left;labelPosition=right;spacingLeft=10;fontStyle=1;fontColor=#F2931E;rounded=1;glass=0;comic=0;" parent="uSNuhHNYJuH7G0lH1MeV-73" vertex="1">
          <mxGeometry x="130.78751857355127" y="31" width="121.09955423476968" height="97" as="geometry" />
        </mxCell>
        <mxCell id="uSNuhHNYJuH7G0lH1MeV-49" value="" style="verticalLabelPosition=middle;verticalAlign=middle;html=1;shape=mxgraph.infographic.cylinder;fillColor=#3399FF;strokeColor=none;shadow=0;align=left;labelPosition=right;spacingLeft=10;fontStyle=1;fontColor=#F2931E;rounded=1;glass=0;comic=0;" parent="uSNuhHNYJuH7G0lH1MeV-73" vertex="1">
          <mxGeometry x="457.7563150074294" y="29.5" width="121.09955423476968" height="97" as="geometry" />
        </mxCell>
        <mxCell id="uSNuhHNYJuH7G0lH1MeV-50" value="" style="verticalLabelPosition=middle;verticalAlign=middle;html=1;shape=mxgraph.infographic.cylinder;fillColor=#CC0000;strokeColor=none;shadow=0;align=left;labelPosition=right;spacingLeft=10;fontStyle=1;fontColor=#F2931E;rounded=1;glass=0;comic=0;" parent="uSNuhHNYJuH7G0lH1MeV-73" vertex="1">
          <mxGeometry x="294.2719167904903" y="31" width="121.09955423476968" height="97" as="geometry" />
        </mxCell>
        <mxCell id="uSNuhHNYJuH7G0lH1MeV-51" value="&lt;b&gt;缓存数据&lt;/b&gt;" style="text;html=1;resizable=0;points=[];autosize=1;align=left;verticalAlign=top;spacingTop=-4;" parent="uSNuhHNYJuH7G0lH1MeV-73" vertex="1">
          <mxGeometry x="154.3744427934621" y="101" width="60" height="20" as="geometry" />
        </mxCell>
        <mxCell id="uSNuhHNYJuH7G0lH1MeV-52" value="&lt;b&gt;热数据&lt;/b&gt;" style="text;html=1;resizable=0;points=[];autosize=1;align=left;verticalAlign=top;spacingTop=-4;" parent="uSNuhHNYJuH7G0lH1MeV-73" vertex="1">
          <mxGeometry x="330.6017830609212" y="101" width="50" height="20" as="geometry" />
        </mxCell>
        <mxCell id="uSNuhHNYJuH7G0lH1MeV-53" value="&lt;b&gt;冷数据（历史数据）&lt;/b&gt;" style="text;html=1;resizable=0;points=[];autosize=1;align=left;verticalAlign=top;spacingTop=-4;" parent="uSNuhHNYJuH7G0lH1MeV-73" vertex="1">
          <mxGeometry x="469.5453194650817" y="101" width="120" height="20" as="geometry" />
        </mxCell>
        <mxCell id="uSNuhHNYJuH7G0lH1MeV-59" value="" style="group" parent="uSNuhHNYJuH7G0lH1MeV-73" vertex="1" connectable="0">
          <mxGeometry x="629.7176820208024" width="69.02674591381871" height="150" as="geometry" />
        </mxCell>
        <mxCell id="uSNuhHNYJuH7G0lH1MeV-55" value="" style="verticalLabelPosition=middle;verticalAlign=middle;html=1;shape=mxgraph.infographic.cylinder;fillColor=#3399FF;strokeColor=none;shadow=0;align=left;labelPosition=right;spacingLeft=10;fontStyle=1;fontColor=#23445D;rounded=1;glass=0;comic=0;" parent="uSNuhHNYJuH7G0lH1MeV-59" vertex="1">
          <mxGeometry y="71.88559322033899" width="61.59309635386901" height="74.36440677966101" as="geometry" />
        </mxCell>
        <mxCell id="uSNuhHNYJuH7G0lH1MeV-56" value="" style="verticalLabelPosition=middle;verticalAlign=middle;html=1;shape=mxgraph.infographic.cylinder;fillColor=#AE4132;strokeColor=none;shadow=0;align=left;labelPosition=right;spacingLeft=10;fontStyle=1;fontColor=#AE4132;rounded=1;glass=0;comic=0;" parent="uSNuhHNYJuH7G0lH1MeV-59" vertex="1">
          <mxGeometry y="22.309322033898304" width="61.59309635386901" height="54.53389830508474" as="geometry" />
        </mxCell>
        <mxCell id="uSNuhHNYJuH7G0lH1MeV-57" value="" style="verticalLabelPosition=middle;verticalAlign=middle;html=1;shape=mxgraph.infographic.cylinder;fillColor=#F2931E;strokeColor=none;shadow=0;align=left;labelPosition=right;spacingLeft=10;fontStyle=1;fontColor=#F2931E;rounded=1;glass=0;comic=0;" parent="uSNuhHNYJuH7G0lH1MeV-59" vertex="1">
          <mxGeometry width="61.59309635386901" height="27.26694915254237" as="geometry" />
        </mxCell>
        <mxCell id="uSNuhHNYJuH7G0lH1MeV-62" value="&lt;b&gt;&lt;font style=&quot;font-size: 15px&quot; color=&quot;#ffffff&quot;&gt;ETL&lt;br&gt;&amp;nbsp;过&lt;br&gt;&amp;nbsp;滤&lt;/font&gt;&lt;/b&gt;" style="text;html=1;resizable=0;points=[];autosize=1;align=left;verticalAlign=top;spacingTop=-4;" parent="uSNuhHNYJuH7G0lH1MeV-59" vertex="1">
          <mxGeometry x="15.929249057035088" y="45.75" width="40" height="50" as="geometry" />
        </mxCell>
        <mxCell id="uSNuhHNYJuH7G0lH1MeV-66" value="&lt;font color=&quot;#6666ff&quot;&gt;&lt;span style=&quot;font-size: 18px&quot;&gt;&lt;b&gt;存&lt;br&gt;储&lt;br&gt;层&lt;/b&gt;&lt;/span&gt;&lt;/font&gt;" style="text;html=1;resizable=0;points=[];autosize=1;align=left;verticalAlign=top;spacingTop=-4;" parent="uSNuhHNYJuH7G0lH1MeV-73" vertex="1">
          <mxGeometry x="30.27488855869242" y="51" width="30" height="50" as="geometry" />
        </mxCell>
        <mxCell id="uSNuhHNYJuH7G0lH1MeV-68" value="" style="group;gradientDirection=north;" parent="uSNuhHNYJuH7G0lH1MeV-73" vertex="1" connectable="0">
          <mxGeometry x="702.3774145616642" y="1" width="112.6225854383358" height="140" as="geometry" />
        </mxCell>
        <mxCell id="uSNuhHNYJuH7G0lH1MeV-65" value="" style="rounded=0;whiteSpace=wrap;html=1;shadow=1;glass=0;comic=0;gradientColor=#3399FF;" parent="uSNuhHNYJuH7G0lH1MeV-68" vertex="1">
          <mxGeometry width="96.87964338781575" height="140" as="geometry" />
        </mxCell>
        <mxCell id="uSNuhHNYJuH7G0lH1MeV-64" value="" style="shadow=0;dashed=0;html=1;strokeColor=none;fillColor=#505050;labelPosition=center;verticalLabelPosition=bottom;verticalAlign=top;outlineConnect=0;align=center;shape=mxgraph.office.databases.database_partition_3;rounded=1;glass=0;comic=0;" parent="uSNuhHNYJuH7G0lH1MeV-68" vertex="1">
          <mxGeometry x="4.843982169390787" y="17" width="72.65973254086181" height="63" as="geometry" />
        </mxCell>
        <mxCell id="uSNuhHNYJuH7G0lH1MeV-67" value="&lt;b&gt;&lt;font style=&quot;font-size: 15px&quot; color=&quot;#ffffff&quot;&gt;数据仓库&lt;/font&gt;&lt;/b&gt;" style="text;html=1;resizable=0;points=[];autosize=1;align=left;verticalAlign=top;spacingTop=-4;" parent="uSNuhHNYJuH7G0lH1MeV-68" vertex="1">
          <mxGeometry x="15.742942050520059" y="109.5" width="80" height="20" as="geometry" />
        </mxCell>
        <mxCell id="uSNuhHNYJuH7G0lH1MeV-70" value="" style="html=1;shadow=0;dashed=0;align=center;verticalAlign=middle;shape=mxgraph.arrows2.arrow;dy=0.6;dx=22;notch=15;rounded=1;glass=0;comic=0;fillColor=#FFFFFF;gradientColor=#FFFF33;gradientDirection=west;" parent="uSNuhHNYJuH7G0lH1MeV-73" vertex="1">
          <mxGeometry x="224.03417533432392" y="101" width="75.0817236255572" height="20" as="geometry" />
        </mxCell>
        <mxCell id="uSNuhHNYJuH7G0lH1MeV-71" value="" style="html=1;shadow=0;dashed=0;align=center;verticalAlign=middle;shape=mxgraph.arrows2.arrow;dy=0.6;dx=22;notch=15;rounded=1;glass=0;comic=0;fillColor=#FFFFFF;gradientColor=#FFFF33;gradientDirection=west;" parent="uSNuhHNYJuH7G0lH1MeV-73" vertex="1">
          <mxGeometry x="382.6745913818722" y="99" width="75.0817236255572" height="20" as="geometry" />
        </mxCell>
        <mxCell id="uSNuhHNYJuH7G0lH1MeV-74" value="" style="rounded=0;whiteSpace=wrap;html=1;shadow=1;glass=0;comic=0;gradientColor=#97d077;fillColor=#d5e8d4;strokeColor=#82b366;" parent="1" vertex="1">
          <mxGeometry x="70" y="762" width="800" height="120" as="geometry" />
        </mxCell>
        <mxCell id="uSNuhHNYJuH7G0lH1MeV-75" value="&lt;b&gt;&lt;font style=&quot;font-size: 15px&quot;&gt;ONENET&lt;/font&gt;&lt;/b&gt;" style="shape=cube;whiteSpace=wrap;html=1;boundedLbl=1;backgroundOutline=1;darkOpacity=0.05;darkOpacity2=0.1;rounded=1;shadow=0;glass=0;comic=0;fillColor=#FFFFFF;gradientColor=#FFFF33;gradientDirection=west;" parent="1" vertex="1">
          <mxGeometry x="162" y="779" width="295" height="80" as="geometry" />
        </mxCell>
        <mxCell id="uSNuhHNYJuH7G0lH1MeV-76" value="&lt;b&gt;&lt;font style=&quot;font-size: 15px&quot;&gt;阿里云&lt;/font&gt;&lt;/b&gt;" style="shape=cube;whiteSpace=wrap;html=1;boundedLbl=1;backgroundOutline=1;darkOpacity=0.05;darkOpacity2=0.1;rounded=1;shadow=0;glass=0;comic=0;fillColor=#FFFFFF;gradientColor=#FFFF33;gradientDirection=east;" parent="1" vertex="1">
          <mxGeometry x="527" y="779" width="294" height="80" as="geometry" />
        </mxCell>
        <mxCell id="uSNuhHNYJuH7G0lH1MeV-77" value="&lt;font color=&quot;#6666ff&quot;&gt;&lt;span style=&quot;font-size: 18px&quot;&gt;&lt;b&gt;基&lt;br&gt;础&lt;br&gt;层&lt;/b&gt;&lt;/span&gt;&lt;/font&gt;" style="text;html=1;resizable=0;points=[];autosize=1;align=left;verticalAlign=top;spacingTop=-4;" parent="1" vertex="1">
          <mxGeometry x="95" y="792" width="30" height="50" as="geometry" />
        </mxCell>
        <mxCell id="uSNuhHNYJuH7G0lH1MeV-78" value="&lt;b style=&quot;text-align: center ; white-space: normal&quot;&gt;&lt;font style=&quot;font-size: 36px&quot;&gt;或&lt;/font&gt;&lt;/b&gt;" style="text;html=1;resizable=0;points=[];autosize=1;align=left;verticalAlign=top;spacingTop=-4;" parent="1" vertex="1">
          <mxGeometry x="470" y="807" width="50" height="20" as="geometry" />
        </mxCell>
        <mxCell id="uSNuhHNYJuH7G0lH1MeV-79" value="&lt;b&gt;&lt;font style=&quot;font-size: 18px&quot;&gt;传&lt;br&gt;&lt;br&gt;感&lt;br&gt;&lt;br&gt;器&lt;/font&gt;&lt;/b&gt;" style="shape=cube;whiteSpace=wrap;html=1;boundedLbl=1;backgroundOutline=1;darkOpacity=0.05;darkOpacity2=0.1;rounded=1;shadow=0;glass=0;comic=0;fillColor=#FFFFFF;gradientColor=#FFFF33;size=12;" parent="1" vertex="1">
          <mxGeometry x="827.5" y="188.5" width="50" height="403" as="geometry" />
        </mxCell>
        <mxCell id="uSNuhHNYJuH7G0lH1MeV-82" value="" style="group" parent="1" vertex="1" connectable="0">
          <mxGeometry x="732.5" y="325" width="101" height="80" as="geometry" />
        </mxCell>
        <mxCell id="uSNuhHNYJuH7G0lH1MeV-83" value="" style="shape=singleArrow;direction=west;whiteSpace=wrap;html=1;rounded=1;shadow=1;glass=0;comic=0;fillColor=#FFFFFF;gradientColor=#B5739D;arrowWidth=0.5111111111111111;arrowSize=0.3626373626373626;" parent="uSNuhHNYJuH7G0lH1MeV-82" vertex="1">
          <mxGeometry x="-9" y="35" width="110" height="45" as="geometry" />
        </mxCell>
        <mxCell id="uSNuhHNYJuH7G0lH1MeV-80" value="" style="outlineConnect=0;dashed=0;verticalLabelPosition=bottom;verticalAlign=top;align=center;html=1;shape=mxgraph.aws3.sensor;fillColor=#5294CF;gradientColor=none;rounded=1;shadow=0;glass=0;comic=0;" parent="1" vertex="1">
          <mxGeometry x="738.5" y="280" width="90" height="85" as="geometry" />
        </mxCell>
        <mxCell id="uSNuhHNYJuH7G0lH1MeV-88" value="&lt;b&gt;&lt;font style=&quot;font-size: 18px&quot;&gt;管道压力探测系统架构图&lt;/font&gt;&lt;font style=&quot;font-size: 15px&quot;&gt;&amp;nbsp;&lt;br&gt;&lt;/font&gt;&amp;nbsp; &amp;nbsp; &amp;nbsp; &amp;nbsp; &amp;nbsp; &amp;nbsp; &amp;nbsp; &amp;nbsp; &amp;nbsp; &amp;nbsp; &amp;nbsp; &amp;nbsp; &amp;nbsp; &amp;nbsp; &amp;nbsp; &amp;nbsp; &amp;nbsp; &amp;nbsp; &amp;nbsp; &amp;nbsp; &amp;nbsp; &amp;nbsp; &amp;nbsp; &amp;nbsp; &amp;nbsp; &amp;nbsp; &amp;nbsp; &amp;nbsp; &amp;nbsp; &amp;nbsp; （Version0.1—&lt;/b&gt;&lt;b&gt;20190808&amp;nbsp;&lt;/b&gt;&lt;b&gt;by JTSU ）&lt;/b&gt;" style="text;html=1;resizable=0;points=[];autosize=1;align=left;verticalAlign=top;spacingTop=-4;" parent="1" vertex="1">
          <mxGeometry x="322" y="890" width="420" height="30" as="geometry" />
        </mxCell>
        <mxCell id="uSNuhHNYJuH7G0lH1MeV-98" value="时间点01" style="shape=step;perimeter=stepPerimeter;whiteSpace=wrap;html=1;fixedSize=1;size=10;direction=south;fillColor=#10739E;strokeColor=none;rounded=0;shadow=1;glass=0;comic=0;" parent="1" vertex="1">
          <mxGeometry x="380" y="1037.5" width="50" height="50" as="geometry" />
        </mxCell>
        <mxCell id="uSNuhHNYJuH7G0lH1MeV-99" value="&lt;span style=&quot;white-space: normal&quot;&gt;时间点02&lt;/span&gt;" style="shape=step;perimeter=stepPerimeter;whiteSpace=wrap;html=1;fixedSize=1;size=10;direction=south;fillColor=#F2931E;strokeColor=none;rounded=0;shadow=1;glass=0;comic=0;" parent="1" vertex="1">
          <mxGeometry x="380" y="1082.5" width="50" height="50" as="geometry" />
        </mxCell>
        <mxCell id="uSNuhHNYJuH7G0lH1MeV-100" value="&lt;span style=&quot;white-space: normal&quot;&gt;时间点&lt;br&gt;n&lt;br&gt;&lt;/span&gt;" style="shape=step;perimeter=stepPerimeter;whiteSpace=wrap;html=1;fixedSize=1;size=10;direction=south;fillColor=#AE4132;strokeColor=none;rounded=0;shadow=1;glass=0;comic=0;" parent="1" vertex="1">
          <mxGeometry x="380" y="1176.5" width="50" height="50" as="geometry" />
        </mxCell>
        <mxCell id="uSNuhHNYJuH7G0lH1MeV-103" value="&lt;font color=&quot;#10739e&quot;&gt;&lt;b&gt;压力值01&lt;/b&gt;&lt;/font&gt;" style="rounded=1;strokeColor=none;fillColor=#EEEEEE;align=center;arcSize=12;verticalAlign=top;whiteSpace=wrap;html=1;fontSize=12;shadow=1;glass=0;comic=0;" parent="1" vertex="1">
          <mxGeometry x="445.5" y="1045.5" width="98" height="30" as="geometry" />
        </mxCell>
        <mxCell id="uSNuhHNYJuH7G0lH1MeV-108" value="" style="group;rounded=0;shadow=0;" parent="1" vertex="1" connectable="0">
          <mxGeometry x="62.5" y="1095" width="310" height="80" as="geometry" />
        </mxCell>
        <mxCell id="uSNuhHNYJuH7G0lH1MeV-91" value="&lt;b&gt;压力采集&lt;/b&gt;" style="ellipse;whiteSpace=wrap;html=1;rounded=1;shadow=1;glass=0;comic=0;fillColor=#FFFFFF;gradientColor=#B5739D;" parent="uSNuhHNYJuH7G0lH1MeV-108" vertex="1">
          <mxGeometry width="120" height="80" as="geometry" />
        </mxCell>
        <mxCell id="uSNuhHNYJuH7G0lH1MeV-94" value="&lt;b&gt;&lt;font style=&quot;font-size: 15px&quot;&gt;压力分析&lt;/font&gt;&lt;/b&gt;" style="shape=step;perimeter=stepPerimeter;whiteSpace=wrap;html=1;fixedSize=1;rounded=0;shadow=1;glass=0;comic=0;fillColor=#FFFFFF;gradientColor=#B5739D;" parent="uSNuhHNYJuH7G0lH1MeV-108" vertex="1">
          <mxGeometry x="120" width="190" height="80" as="geometry" />
        </mxCell>
        <mxCell id="uSNuhHNYJuH7G0lH1MeV-95" value="压力差" style="rounded=1;whiteSpace=wrap;html=1;shadow=1;glass=0;comic=0;fillColor=#FFFF99;gradientColor=#ffa500;strokeColor=#d79b00;gradientDirection=south;" parent="uSNuhHNYJuH7G0lH1MeV-108" vertex="1">
          <mxGeometry x="139" y="4" width="70" height="20" as="geometry" />
        </mxCell>
        <mxCell id="uSNuhHNYJuH7G0lH1MeV-97" value="时间范围的参数临界值" style="rounded=1;whiteSpace=wrap;html=1;shadow=1;glass=0;comic=0;fillColor=#FFFF99;gradientColor=#ffa500;strokeColor=#d79b00;gradientDirection=south;" parent="uSNuhHNYJuH7G0lH1MeV-108" vertex="1">
          <mxGeometry x="140" y="52" width="140" height="20" as="geometry" />
        </mxCell>
        <mxCell id="uSNuhHNYJuH7G0lH1MeV-109" value="&lt;font color=&quot;#10739e&quot;&gt;&lt;b&gt;压力值02&lt;/b&gt;&lt;/font&gt;" style="rounded=1;strokeColor=none;fillColor=#EEEEEE;align=center;arcSize=12;verticalAlign=top;whiteSpace=wrap;html=1;fontSize=12;shadow=1;glass=0;comic=0;" parent="1" vertex="1">
          <mxGeometry x="446" y="1093.5" width="98" height="30" as="geometry" />
        </mxCell>
        <mxCell id="uSNuhHNYJuH7G0lH1MeV-110" value="&lt;font color=&quot;#10739e&quot;&gt;&lt;b&gt;压力值 n&lt;/b&gt;&lt;/font&gt;" style="rounded=1;strokeColor=none;fillColor=#EEEEEE;align=center;arcSize=12;verticalAlign=top;whiteSpace=wrap;html=1;fontSize=12;shadow=1;glass=0;comic=0;" parent="1" vertex="1">
          <mxGeometry x="446" y="1191.5" width="98" height="30" as="geometry" />
        </mxCell>
        <mxCell id="uSNuhHNYJuH7G0lH1MeV-117" value="&lt;b&gt;&lt;font style=&quot;font-size: 18px&quot;&gt;管道压力探测系统逻辑时序图&lt;/font&gt;&lt;font style=&quot;font-size: 15px&quot;&gt;&amp;nbsp;&lt;br&gt;&lt;/font&gt;&amp;nbsp; &amp;nbsp; &amp;nbsp; &amp;nbsp; &amp;nbsp; &amp;nbsp; &amp;nbsp; &amp;nbsp; &amp;nbsp; &amp;nbsp; &amp;nbsp; &amp;nbsp; &amp;nbsp; &amp;nbsp; &amp;nbsp; &amp;nbsp; &amp;nbsp; &amp;nbsp; &amp;nbsp; &amp;nbsp; &amp;nbsp; &amp;nbsp; &amp;nbsp; &amp;nbsp; &amp;nbsp; &amp;nbsp; &amp;nbsp; &amp;nbsp; &amp;nbsp; &amp;nbsp; （Version0.1—&lt;/b&gt;&lt;b&gt;20190808&amp;nbsp;&lt;/b&gt;&lt;b&gt;by JTSU ）&lt;/b&gt;" style="text;html=1;resizable=0;points=[];autosize=1;align=left;verticalAlign=top;spacingTop=-4;" parent="1" vertex="1">
          <mxGeometry x="108" y="1280" width="420" height="30" as="geometry" />
        </mxCell>
        <mxCell id="uSNuhHNYJuH7G0lH1MeV-119" value="" style="verticalLabelPosition=bottom;verticalAlign=top;html=1;strokeWidth=2;shape=mxgraph.arrows2.arrow;dy=0.45;dx=48;notch=0;rounded=1;shadow=1;glass=0;comic=0;fillColor=#FFFF99;gradientColor=#B5739D;gradientDirection=west;" parent="1" vertex="1">
          <mxGeometry x="74" y="1230" width="680" height="31" as="geometry" />
        </mxCell>
        <mxCell id="uSNuhHNYJuH7G0lH1MeV-123" value="&lt;span style=&quot;white-space: normal&quot;&gt;。&lt;br&gt;。&lt;br&gt;。&lt;br&gt;&lt;/span&gt;" style="shape=step;perimeter=stepPerimeter;whiteSpace=wrap;html=1;fixedSize=1;size=10;direction=south;fillColor=#AE4132;strokeColor=none;rounded=0;shadow=1;glass=0;comic=0;" parent="1" vertex="1">
          <mxGeometry x="380" y="1129.5" width="50" height="50" as="geometry" />
        </mxCell>
        <mxCell id="uSNuhHNYJuH7G0lH1MeV-124" value="&lt;font color=&quot;#10739e&quot;&gt;&lt;b&gt;。&lt;br&gt;。&lt;br&gt;。&lt;br&gt;&lt;/b&gt;&lt;/font&gt;" style="rounded=1;strokeColor=none;fillColor=#EEEEEE;align=center;arcSize=12;verticalAlign=top;whiteSpace=wrap;html=1;fontSize=12;shadow=1;glass=0;comic=0;" parent="1" vertex="1">
          <mxGeometry x="445" y="1132" width="100" height="49" as="geometry" />
        </mxCell>
        <mxCell id="uSNuhHNYJuH7G0lH1MeV-125" value="&lt;b&gt;异常警报&lt;/b&gt;" style="aspect=fixed;html=1;perimeter=none;align=center;shadow=0;dashed=0;image;fontSize=12;image=img/lib/mscae/GlobeWarning.svg;rounded=0;glass=0;comic=0;fillColor=#FFFF99;gradientColor=#B5739D;" parent="1" vertex="1">
          <mxGeometry x="690" y="1090.5" width="77" height="89" as="geometry" />
        </mxCell>
        <mxCell id="uSNuhHNYJuH7G0lH1MeV-127" value="&lt;span style=&quot;font-size: 15px&quot;&gt;&lt;b&gt;压力值异常&lt;/b&gt;&lt;/span&gt;" style="shape=step;perimeter=stepPerimeter;whiteSpace=wrap;html=1;fixedSize=1;rounded=0;shadow=1;glass=0;comic=0;fillColor=#FFFFFF;gradientColor=#B5739D;" parent="1" vertex="1">
          <mxGeometry x="562" y="1111" width="110" height="55" as="geometry" />
        </mxCell>
      </root>
    </mxGraphModel>
  </diagram>
</mxfile>
